<svg xmlns="http://www.w3.org/2000/svg" xmlns:xlink="http://www.w3.org/1999/xlink" version="1.1" x="0px" y="0px" viewBox="0 0 100 125" enable-background="new 0 0 100 100" xml:space="preserve"><path d="M85.432,49.079c-4.044-7.797-11.064-13.85-19.48-17.266L80.107,12.69l-3.215-2.381L61.985,30.447  c-3.822-1.122-7.854-1.739-11.985-1.739c-15.105,0-29.013,7.996-35.432,20.371L14.091,50l0.478,0.921  c4.044,7.797,11.064,13.85,19.48,17.266L19.893,87.31l3.215,2.381l14.907-20.138c3.822,1.122,7.854,1.739,11.985,1.739  c15.105,0,29.013-7.996,35.432-20.371L85.909,50L85.432,49.079z M65.914,50c0,8.775-7.139,15.914-15.914,15.914  c-2.825,0-5.476-0.748-7.778-2.045l18.768-25.353C64.018,41.416,65.914,45.486,65.914,50z M39.011,61.483  c-3.028-2.899-4.925-6.97-4.925-11.483c0-8.775,7.139-15.914,15.914-15.914c2.825,0,5.476,0.748,7.778,2.045L39.011,61.483z   M18.617,50c3.903-6.922,10.512-12.194,18.336-15.009c-4.197,3.653-6.867,9.02-6.867,15.009c0,5.828,2.532,11.063,6.537,14.709  l-0.105,0.143C28.884,61.999,22.448,56.793,18.617,50z M63.047,65.009c4.197-3.653,6.867-9.02,6.867-15.009  c0-5.828-2.532-11.063-6.537-14.709l0.105-0.143c7.634,2.853,14.069,8.059,17.9,14.852C77.479,56.922,70.871,62.194,63.047,65.009z"/></svg>